<svg xmlns="http://www.w3.org/2000/svg" width="1263" height="255" viewBox="0 0 1263 255">
  <defs>
    <style>
      .cls-1 {
        fill: #fff;
        fill-rule: evenodd;
      }
    </style>
  </defs>
  <g id="Horis_copy" data-name="Horis copy">
    <path id="Shape_1_copy" data-name="Shape 1 copy" class="cls-1" d="M1132.49,781.405q-15.18,0-24.64,9.64-8.985,9.24-8.99,23.6v71.134h0.67l12.65-5.983v-40.82h40.61v46.8h0.67l12.65-5.983V814.644q0-14.691-8.99-23.6Q1147.4,781.4,1132.49,781.405Zm20.3,45.471h-40.61V814.644q0-8.907,4.79-14.426a21,21,0,0,1,31.03,0q4.785,5.519,4.79,14.426v12.232Zm70.88-44.141h-25.23l-7.06,3.324v99.719h0.66l12.66-5.983V849.214h18.97q15.105,0,24.63-9.639,9-9.11,8.99-23.6,0-14.426-8.99-23.6Q1238.85,782.735,1223.67,782.735Zm15.51,47.665q-6.78,6.848-15.51,6.848H1204.7V794.7h18.97a19.529,19.529,0,0,1,15.51,6.847q4.8,5.518,4.8,14.426Q1243.98,825.547,1239.18,830.4Zm50.04,8.575h40.62v46.8h0.66l12.65-5.983V814.644q0-14.691-8.99-23.6-9.72-9.64-24.63-9.64-15.18,0-24.64,9.64-8.985,9.24-8.99,23.6v71.134h0.67l12.65-5.983v-40.82Zm0-24.331q0-8.907,4.79-14.426a21,21,0,0,1,31.03,0q4.8,5.519,4.8,14.426v12.232h-40.62V814.644Zm92.52,34.57h16.18l25.63,36.564h0.67l11.71-5.519-23.05-32.892a31.387,31.387,0,0,0,12.46-7.782q9-9.111,8.99-23.611,0-14.426-8.98-23.6-9.465-9.639-24.64-9.639h-25.23l-7.06,3.324v99.719h0.66l12.66-5.983V849.214Zm0-54.513h18.97a19.549,19.549,0,0,1,15.52,6.847q4.785,5.518,4.79,14.426,0,9.573-4.79,14.426-6.8,6.848-15.52,6.848h-18.97V794.7Zm126.8-11.3v-0.664h-64.92l-5.39,11.434v0.665h28.5v90.944h0.66l12.65-5.983V794.834h23.11Zm138.02,38.684q-7.32,0-11.32-4.454-3-3.324-2.99-9.9c0-4.565,1.3-8.2,3.93-10.9a13.783,13.783,0,0,1,10.38-4.056,14.716,14.716,0,0,1,9.99,3.657q4.32,3.723,4.33,11.3v5.318h0.66l12.65-5.984q0-11.7-8.25-18.414-7.86-6.382-19.38-6.382t-19.38,6.382q-8.25,6.716-8.25,20.076,0,11.368,6.66,17.352a30.285,30.285,0,0,0,20.97,7.977q11.055,0,16.38,6.249,3.855,4.523,3.86,12.432,0,8.376-4.72,13.762a21,21,0,0,1-31.03,0,20.032,20.032,0,0,1-4.8-13.629v-5.452h-0.66l-12.65,5.983a31.386,31.386,0,0,0,8.99,22.271q9.12,9.64,24.63,9.64t24.64-9.64a32.511,32.511,0,0,0,8.92-23.068q0-15.024-8.92-22.935Q1662.665,822.083,1646.56,822.083Zm108.83-35.168v40.818h-39.28v-46.8h-0.67l-12.65,5.983v99.72h0.67l12.65-5.984V839.832h39.28v46.8h0.67l12.64-5.984V780.932h-0.66Zm72.21-4.653q-15.18,0-24.64,9.639-8.985,9.24-8.98,23.6v71.134h0.66l12.65-5.984V839.832h40.61v46.8h0.67l12.65-5.984V815.5q0-14.691-8.99-23.6Q1842.51,782.262,1827.6,782.262Zm20.3,45.471h-40.61V815.5q0-8.907,4.79-14.426a21,21,0,0,1,31.03,0q4.8,5.518,4.79,14.426v12.232Zm95.51,12.71q9-9.112,9-23.613,0-14.424-8.99-23.6-9.465-9.639-24.64-9.639h-25.23l-7.06,3.323v99.72h0.67l12.65-5.984v-30.58h16.18l25.63,36.564h0.67l11.71-5.518-23.05-32.893A31.385,31.385,0,0,0,1943.41,840.443Zm-43.6-2.338V795.558h18.97a19.549,19.549,0,0,1,15.52,6.847q4.785,5.518,4.79,14.425,0,9.574-4.79,14.428-6.795,6.846-15.52,6.847h-18.97Zm76.13-51.19v99.72h0.67l12.65-5.984V780.932h-0.67Zm72.21-4.653q-15.18,0-24.63,9.639-8.985,9.24-8.99,23.6v71.134h0.67l12.64-5.984V815.5q0-8.907,4.8-14.426a21,21,0,0,1,31.03,0q4.785,5.518,4.79,14.426v71.134h0.67l12.65-5.984V815.5q0-14.691-8.99-23.6Q2063.13,782.262,2048.15,782.262Zm89.65,56.906v0.664h23.17v13.562a19.3,19.3,0,0,1-4.79,13.1,21,21,0,0,1-31.03,0q-4.785-5.518-4.79-14.427V815.5q0-8.907,4.79-14.426a21,21,0,0,1,31.03,0q4.8,5.518,4.79,14.426v4.655h0.67l12.65-5.983a31.741,31.741,0,0,0-8.95-22.272q-8.955-9.639-24.67-9.639-15.18,0-24.64,9.639-8.985,9.176-8.99,23.6v36.564q0,14.427,8.99,23.6,9.465,9.64,24.64,9.64t24.63-9.64q8.985-9.174,8.99-23.6V827.733H2143.2ZM911.008,711h127l-91.441,30.6v193.8l91.441,30.6h-127V711Z" transform="translate(-911 -711)"/>
  </g>
</svg>
