<svg xmlns="http://www.w3.org/2000/svg" xmlns:xlink="http://www.w3.org/1999/xlink" viewBox="0 0 431.46 258.6"><defs><style>.cls-1{fill:#ff9b46;}.cls-2{fill:#b2b8c2;}.cls-3{fill:url(#linear-gradient);}.cls-4{fill:url(#linear-gradient-2);}.cls-5{fill:url(#linear-gradient-3);}.cls-6{fill:url(#linear-gradient-4);}.cls-7{fill:#f4f4f4;}</style><linearGradient id="linear-gradient" x1="12.51" y1="181.08" x2="291.01" y2="181.08" gradientUnits="userSpaceOnUse"><stop offset="0" stop-color="#ffcb67"/><stop offset="1" stop-color="#ffa64d"/></linearGradient><linearGradient id="linear-gradient-2" x1="283.01" y1="145.57" x2="419.81" y2="145.57" gradientUnits="userSpaceOnUse"><stop offset="0" stop-color="#ffa64d"/><stop offset="1" stop-color="#ff6e27"/></linearGradient><linearGradient id="linear-gradient-3" x1="283.42" y1="79.04" x2="416.62" y2="79.04" xlink:href="#linear-gradient-2"/><linearGradient id="linear-gradient-4" x1="282.99" y1="6.64" x2="419.8" y2="6.64" xlink:href="#linear-gradient-2"/></defs><g id="Layer_2" data-name="Layer 2"><g id="Layer_1-2" data-name="Layer 1"><path class="cls-1" d="M288.92,98a11.75,11.75,0,1,1,11.75-11.75A11.77,11.77,0,0,1,288.92,98Zm0-16.5a4.75,4.75,0,1,0,4.75,4.75A4.76,4.76,0,0,0,288.92,81.53Z"/><polygon class="cls-2" points="416.39 219.4 8.97 219.4 8.97 22.91 11.97 22.91 11.97 216.4 416.39 216.4 416.39 219.4"/><polygon class="cls-2" points="0 25.98 10.47 7.84 20.94 25.98 0 25.98"/><polygon class="cls-2" points="413.33 228.37 431.46 217.9 413.33 207.43 413.33 228.37"/><path class="cls-3" d="M16.51,219.11a4,4,0,0,1,0-8c49.26,0,75.75-8.74,101.36-17.19,17.11-5.64,33.27-11,54.92-13.21,20.45-2.12,87.25-19.12,111.87-36.91a4,4,0,1,1,4.69,6.49c-25.67,18.54-94.67,36.2-115.74,38.38-20.78,2.15-36.55,7.35-53.23,12.85C95.39,209.77,67.06,219.11,16.51,219.11Z"/><path class="cls-4" d="M287,151.05a4,4,0,0,1-1.95-7.5l5.2-2.92a4,4,0,1,1,3.95,7q-2.58,1.47-5.26,3A4,4,0,0,1,287,151.05Z"/><path class="cls-5" d="M302.83,141.91a4,4,0,0,1-2.06-7.43c3.66-2.21,7-4.31,10.28-6.43a4,4,0,0,1,4.36,6.71c-3.32,2.16-6.77,4.31-10.52,6.57A3.94,3.94,0,0,1,302.83,141.91Zm20.54-13.42a4,4,0,0,1-2.34-7.25c3.34-2.39,6.57-4.84,9.61-7.27a4,4,0,1,1,5,6.24c-3.15,2.52-6.5,5.06-10,7.54A4,4,0,0,1,323.37,128.49Zm19.1-15.35a4,4,0,0,1-2.69-7c3-2.67,5.86-5.48,8.65-8.34a4,4,0,1,1,5.73,5.59c-2.91,3-5.94,5.9-9,8.68A4,4,0,0,1,342.47,113.14ZM359.59,95.6a4,4,0,0,1-3-6.63c2.56-2.94,5.14-6.07,7.67-9.3a4,4,0,1,1,6.3,4.93c-2.62,3.34-5.29,6.57-7.93,9.62A4,4,0,0,1,359.59,95.6Zm15.15-19.29a3.91,3.91,0,0,1-2.32-.75,4,4,0,0,1-.93-5.58c2.26-3.14,4.58-6.5,6.89-10A4,4,0,0,1,385,64.44c-2.37,3.55-4.74,7-7,10.2A4,4,0,0,1,374.74,76.31Zm13.62-20.4A4,4,0,0,1,385,49.79c2.06-3.29,4.2-6.78,6.36-10.4a4,4,0,0,1,6.87,4.1C396,47.16,393.84,50.7,391.75,54A4,4,0,0,1,388.36,55.91ZM401,34.85a4,4,0,0,1-3.47-6c1.93-3.36,3.95-6.94,6-10.64a4,4,0,0,1,7,3.89c-2.08,3.73-4.11,7.34-6.06,10.73A4,4,0,0,1,401,34.85Z"/><path class="cls-6" d="M413,13.28a3.92,3.92,0,0,1-1.9-.48,4,4,0,0,1-1.62-5.42q1.41-2.59,2.84-5.27a4,4,0,0,1,7.05,3.78l-2.85,5.3A4,4,0,0,1,413,13.28Z"/><rect class="cls-1" x="287.42" y="94.53" width="3" height="54.73"/><rect class="cls-7" x="141.32" y="67.02" width="123.82" height="40.36" rx="11.01"/><path d="M172.75,92.1v3H160.82V92.71L166.91,87a6.64,6.64,0,0,0,1.31-1.59,3,3,0,0,0,.34-1.32,1.76,1.76,0,0,0-.65-1.46,3,3,0,0,0-1.88-.51,4.35,4.35,0,0,0-1.87.4,3.54,3.54,0,0,0-1.4,1.18L160.1,82a6.07,6.07,0,0,1,2.55-2.15,8.47,8.47,0,0,1,3.72-.78,7.73,7.73,0,0,1,3.08.57,4.8,4.8,0,0,1,2.05,1.63,4.19,4.19,0,0,1,.73,2.47,5.52,5.52,0,0,1-.54,2.41,9.24,9.24,0,0,1-2.1,2.57L166,92.1Z"/><path d="M180.35,79.29V95.08H176.7V82.22h-3.16V79.29Z"/><path d="M186.37,94.38a6.59,6.59,0,0,1-2.4-2.81,11.49,11.49,0,0,1,0-8.77,6.47,6.47,0,0,1,2.4-2.81,6.8,6.8,0,0,1,7,0,6.47,6.47,0,0,1,2.4,2.81,11.49,11.49,0,0,1,0,8.77,6.59,6.59,0,0,1-2.4,2.81,6.8,6.8,0,0,1-7,0ZM192.14,91a7.16,7.16,0,0,0,.82-3.84,7.1,7.1,0,0,0-.82-3.83,2.68,2.68,0,0,0-4.52,0,7.1,7.1,0,0,0-.82,3.83,7.16,7.16,0,0,0,.82,3.84,2.68,2.68,0,0,0,4.52,0Z"/><path d="M208.07,94.38a6.59,6.59,0,0,1-2.4-2.81,11.49,11.49,0,0,1,0-8.77,6.47,6.47,0,0,1,2.4-2.81,6.78,6.78,0,0,1,7,0,6.47,6.47,0,0,1,2.4,2.81,11.49,11.49,0,0,1,0,8.77,6.59,6.59,0,0,1-2.4,2.81,6.78,6.78,0,0,1-7,0ZM213.83,91a7.06,7.06,0,0,0,.83-3.84,7,7,0,0,0-.83-3.83,2.67,2.67,0,0,0-4.51,0,7,7,0,0,0-.82,3.83,7.07,7.07,0,0,0,.82,3.84,2.67,2.67,0,0,0,4.51,0Z"/><path d="M223.38,94.38a6.59,6.59,0,0,1-2.4-2.81,11.49,11.49,0,0,1,0-8.77,6.47,6.47,0,0,1,2.4-2.81,6.46,6.46,0,0,1,9.4,2.81,11.49,11.49,0,0,1,0,8.77,6.54,6.54,0,0,1-2.41,2.81,6.78,6.78,0,0,1-7,0ZM229.15,91a7.16,7.16,0,0,0,.82-3.84,7.1,7.1,0,0,0-.82-3.83,2.68,2.68,0,0,0-4.52,0,7.1,7.1,0,0,0-.82,3.83,7.16,7.16,0,0,0,.82,3.84,2.68,2.68,0,0,0,4.52,0Z"/><path d="M238.7,94.38a6.45,6.45,0,0,1-2.4-2.81,11.49,11.49,0,0,1,0-8.77A6.58,6.58,0,0,1,245.69,80a6.47,6.47,0,0,1,2.4,2.81,11.49,11.49,0,0,1,0,8.77,6.59,6.59,0,0,1-2.4,2.81,6.78,6.78,0,0,1-7,0ZM244.46,91a7.07,7.07,0,0,0,.82-3.84,7,7,0,0,0-.82-3.83,2.67,2.67,0,0,0-4.51,0,7,7,0,0,0-.82,3.83A7.07,7.07,0,0,0,240,91a2.67,2.67,0,0,0,4.51,0Z"/><path class="cls-2" d="M19.65,256.33v2.08H9.91v-1.64l5.25-5a5.78,5.78,0,0,0,1.2-1.48,2.79,2.79,0,0,0,.31-1.26,1.7,1.7,0,0,0-.62-1.41,2.93,2.93,0,0,0-1.84-.49,3.7,3.7,0,0,0-3.09,1.37L9.4,247.19a5,5,0,0,1,2.08-1.61,7.18,7.18,0,0,1,2.94-.58,5.38,5.38,0,0,1,3.44,1,3.35,3.35,0,0,1,1.28,2.78,4.63,4.63,0,0,1-.45,2A7.7,7.7,0,0,1,17,253l-3.53,3.36Z"/><path class="cls-2" d="M23.69,257.8a5.49,5.49,0,0,1-2-2.34,9.64,9.64,0,0,1,0-7.31,5.46,5.46,0,0,1,2-2.35,5.44,5.44,0,0,1,5.68,0,5.35,5.35,0,0,1,2,2.35,9.64,9.64,0,0,1,0,7.31,5.37,5.37,0,0,1-2,2.34,5.44,5.44,0,0,1-5.68,0Zm5.08-2.5a7.86,7.86,0,0,0,0-7,2.71,2.71,0,0,0-4.46,0,7.86,7.86,0,0,0,0,7,2.71,2.71,0,0,0,4.46,0Z"/><path class="cls-2" d="M43.21,256.33v2.08H33.46v-1.64l5.25-5a5.78,5.78,0,0,0,1.2-1.48,2.79,2.79,0,0,0,.31-1.26,1.7,1.7,0,0,0-.62-1.41,2.91,2.91,0,0,0-1.83-.49,3.72,3.72,0,0,0-3.1,1.37L33,247.19A5.07,5.07,0,0,1,35,245.58,7.1,7.1,0,0,1,38,245a5.36,5.36,0,0,1,3.44,1,3.36,3.36,0,0,1,1.29,2.78,4.5,4.5,0,0,1-.46,2A7.81,7.81,0,0,1,40.51,253L37,256.33Z"/><path class="cls-2" d="M49.19,245.19v13.22H46.74V247.25h-2.8v-2.06Z"/><path class="cls-2" d="M140.71,256.33v2.08H131v-1.64l5.25-5a5.78,5.78,0,0,0,1.2-1.48,2.92,2.92,0,0,0,.31-1.26,1.68,1.68,0,0,0-.63-1.41,2.87,2.87,0,0,0-1.83-.49,3.72,3.72,0,0,0-3.1,1.37l-1.71-1.32a5,5,0,0,1,2.08-1.61,7.18,7.18,0,0,1,2.94-.58,5.4,5.4,0,0,1,3.44,1,3.38,3.38,0,0,1,1.28,2.78,4.63,4.63,0,0,1-.45,2A7.7,7.7,0,0,1,138,253l-3.53,3.36Z"/><path class="cls-2" d="M144.75,257.8a5.49,5.49,0,0,1-2-2.34,9.64,9.64,0,0,1,0-7.31,5.46,5.46,0,0,1,2-2.35,5.44,5.44,0,0,1,5.68,0,5.41,5.41,0,0,1,2,2.35,9.64,9.64,0,0,1,0,7.31,5.44,5.44,0,0,1-2,2.34,5.44,5.44,0,0,1-5.68,0Zm5.07-2.5a7.77,7.77,0,0,0,0-7,2.7,2.7,0,0,0-4.45,0,7.86,7.86,0,0,0,0,7,2.7,2.7,0,0,0,4.45,0Z"/><path class="cls-2" d="M164.26,256.33v2.08h-9.74v-1.64l5.25-5a5.78,5.78,0,0,0,1.2-1.48,2.79,2.79,0,0,0,.31-1.26,1.7,1.7,0,0,0-.62-1.41,2.93,2.93,0,0,0-1.84-.49,3.7,3.7,0,0,0-3.09,1.37L154,247.19a5,5,0,0,1,2.08-1.61A7.18,7.18,0,0,1,159,245a5.38,5.38,0,0,1,3.44,1,3.35,3.35,0,0,1,1.28,2.78,4.63,4.63,0,0,1-.45,2,7.7,7.7,0,0,1-1.74,2.15L158,256.33Z"/><path class="cls-2" d="M175.26,256.33v2.08h-9.75v-1.64l5.25-5a5.78,5.78,0,0,0,1.2-1.48,2.79,2.79,0,0,0,.31-1.26,1.7,1.7,0,0,0-.62-1.41,2.91,2.91,0,0,0-1.83-.49,3.72,3.72,0,0,0-3.1,1.37L165,247.19a5.07,5.07,0,0,1,2.09-1.61A7.1,7.1,0,0,1,170,245a5.36,5.36,0,0,1,3.44,1,3.36,3.36,0,0,1,1.29,2.78,4.64,4.64,0,0,1-.46,2,7.7,7.7,0,0,1-1.74,2.15L169,256.33Z"/><path class="cls-2" d="M265.73,256.33v2.08H256v-1.64l5.25-5a5.78,5.78,0,0,0,1.2-1.48,2.92,2.92,0,0,0,.31-1.26,1.7,1.7,0,0,0-.62-1.41,2.93,2.93,0,0,0-1.84-.49,3.7,3.7,0,0,0-3.09,1.37l-1.72-1.32a5,5,0,0,1,2.08-1.61,7.18,7.18,0,0,1,2.94-.58,5.38,5.38,0,0,1,3.44,1,3.38,3.38,0,0,1,1.28,2.78,4.63,4.63,0,0,1-.45,2A7.7,7.7,0,0,1,263,253l-3.53,3.36Z"/><path class="cls-2" d="M269.77,257.8a5.49,5.49,0,0,1-2-2.34,9.64,9.64,0,0,1,0-7.31,5.46,5.46,0,0,1,2-2.35,5.44,5.44,0,0,1,5.68,0,5.41,5.41,0,0,1,2,2.35,9.64,9.64,0,0,1,0,7.31,5.44,5.44,0,0,1-2,2.34,5.44,5.44,0,0,1-5.68,0Zm5.07-2.5a7.77,7.77,0,0,0,0-7,2.7,2.7,0,0,0-4.45,0,7.86,7.86,0,0,0,0,7,2.7,2.7,0,0,0,4.45,0Z"/><path class="cls-2" d="M289.29,256.33v2.08h-9.75v-1.64l5.25-5a5.78,5.78,0,0,0,1.2-1.48,2.79,2.79,0,0,0,.31-1.26,1.7,1.7,0,0,0-.62-1.41,2.91,2.91,0,0,0-1.83-.49,3.72,3.72,0,0,0-3.1,1.37L279,247.19a5.07,5.07,0,0,1,2.09-1.61,7.1,7.1,0,0,1,2.93-.58,5.36,5.36,0,0,1,3.44,1,3.36,3.36,0,0,1,1.29,2.78,4.64,4.64,0,0,1-.46,2,7.7,7.7,0,0,1-1.74,2.15l-3.53,3.36Z"/><path class="cls-2" d="M299.13,251.89a3.61,3.61,0,0,1,1,2.55,3.91,3.91,0,0,1-.59,2.1,4,4,0,0,1-1.76,1.5,6.75,6.75,0,0,1-2.88.56,8.85,8.85,0,0,1-2.73-.41,6.92,6.92,0,0,1-2.24-1.12l1.06-1.91a5.4,5.4,0,0,0,1.74,1,6.7,6.7,0,0,0,2.13.35,3.44,3.44,0,0,0,2.05-.54,1.83,1.83,0,0,0,0-2.91,3.68,3.68,0,0,0-2.17-.52h-1.21v-1.68l3-3.57h-6v-2.06h9v1.64l-3.21,3.82A4.53,4.53,0,0,1,299.13,251.89Z"/><path class="cls-2" d="M389.25,256.33v2.08H379.5v-1.64l5.25-5a5.78,5.78,0,0,0,1.2-1.48,2.79,2.79,0,0,0,.31-1.26,1.7,1.7,0,0,0-.62-1.41,2.91,2.91,0,0,0-1.83-.49,3.72,3.72,0,0,0-3.1,1.37L379,247.19a5.07,5.07,0,0,1,2.09-1.61A7.1,7.1,0,0,1,384,245a5.36,5.36,0,0,1,3.44,1,3.36,3.36,0,0,1,1.29,2.78,4.5,4.5,0,0,1-.46,2,7.81,7.81,0,0,1-1.73,2.15L383,256.33Z"/><path class="cls-2" d="M393.29,257.8a5.51,5.51,0,0,1-2-2.34,9.76,9.76,0,0,1,0-7.31,5.48,5.48,0,0,1,2-2.35,5.42,5.42,0,0,1,5.67,0,5.43,5.43,0,0,1,2,2.35,9.64,9.64,0,0,1,0,7.31,5.46,5.46,0,0,1-2,2.34,5.42,5.42,0,0,1-5.67,0Zm5.07-2.5a7.86,7.86,0,0,0,0-7,2.71,2.71,0,0,0-4.46,0,7.86,7.86,0,0,0,0,7,2.71,2.71,0,0,0,4.46,0Z"/><path class="cls-2" d="M412.8,256.33v2.08h-9.75v-1.64l5.25-5a5.37,5.37,0,0,0,1.2-1.48,2.8,2.8,0,0,0,.32-1.26,1.68,1.68,0,0,0-.63-1.41,2.87,2.87,0,0,0-1.83-.49,3.72,3.72,0,0,0-3.1,1.37l-1.72-1.32a5.14,5.14,0,0,1,2.09-1.61,7.14,7.14,0,0,1,2.94-.58,5.4,5.4,0,0,1,3.44,1,3.38,3.38,0,0,1,1.28,2.78,4.63,4.63,0,0,1-.45,2A7.88,7.88,0,0,1,410.1,253l-3.53,3.36Z"/><path class="cls-2" d="M425.72,255.41h-2.34v3H421v-3h-7.26v-1.7l6.52-8.52h2.63l-6.14,8.14h4.32v-2.66h2.31v2.66h2.34Z"/></g></g></svg>