<svg xmlns="http://www.w3.org/2000/svg" xmlns:xlink="http://www.w3.org/1999/xlink" viewBox="0 0 151 151"><defs><style>.cls-1{fill:url(#linear-gradient);filter:url(#filter);}.cls-2{fill:url(#linear-gradient-2);}.cls-3{fill:url(#linear-gradient-3);}.cls-4{fill:url(#linear-gradient-4);}.cls-5{fill:#75f0dc;}.cls-6{fill:url(#linear-gradient-5);}.cls-7{fill:url(#linear-gradient-6);}.cls-8{fill:#ffd357;}.cls-9{fill:none;stroke:#ffd357;stroke-linecap:round;stroke-miterlimit:10;stroke-width:0.75px;}</style><linearGradient id="linear-gradient" x1="99.83" y1="123.16" x2="51.01" y2="13.67" gradientUnits="userSpaceOnUse"><stop offset="0" stop-color="#ffbd3d"/><stop offset="1" stop-color="#ffaf15"/></linearGradient><filter id="filter" x="0" y="0" width="151" height="151" filterUnits="userSpaceOnUse"><feOffset dy="7" input="SourceAlpha"/><feGaussianBlur stdDeviation="5" result="blur"/><feFlood flood-color="#eceae5"/><feComposite operator="in" in2="blur"/><feComposite in="SourceGraphic"/></filter><linearGradient id="linear-gradient-2" x1="99.83" y1="115.21" x2="51.01" y2="5.72" gradientUnits="userSpaceOnUse"><stop offset="0" stop-color="#ffd95e"/><stop offset="1" stop-color="#ffb31e"/></linearGradient><linearGradient id="linear-gradient-3" x1="37.7" y1="31.32" x2="78.89" y2="31.32" gradientTransform="translate(41.17 -31.55) rotate(30.37)" gradientUnits="userSpaceOnUse"><stop offset="0" stop-color="#84c7d9"/><stop offset="1" stop-color="#7587de"/></linearGradient><linearGradient id="linear-gradient-4" x1="37.29" y1="30.09" x2="78.42" y2="30.09" gradientUnits="userSpaceOnUse"><stop offset="0" stop-color="#6ce1bc"/><stop offset="1" stop-color="#6cdecc"/></linearGradient><linearGradient id="linear-gradient-5" x1="46.6" y1="127.27" x2="16.15" y2="58.97" gradientUnits="userSpaceOnUse"><stop offset="0" stop-color="#ffad30"/><stop offset="1" stop-color="#ffad28"/></linearGradient><linearGradient id="linear-gradient-6" x1="66.26" y1="108.68" x2="26.54" y2="19.6" gradientUnits="userSpaceOnUse"><stop offset="0.02" stop-color="#ffc15c"/><stop offset="1" stop-color="#ff9335"/></linearGradient></defs><g id="Layer_2" data-name="Layer 2"><g id="Layer_1-2" data-name="Layer 1"><circle class="cls-1" cx="75.42" cy="68.41" r="59.92"/><circle class="cls-2" cx="75.42" cy="60.46" r="59.92"/><path class="cls-3" d="M79,59.93C76,59.62,63,1.75,65.71,1.31a58.68,58.68,0,0,1,32,3.51C91.64,21.88,79.55,58.48,79,59.93Z"/><path class="cls-4" d="M78.42,59.19C76.12,57.73,68,50,56.89,38.2,44.2,24.69,37.48,16.32,37.29,14.88,46.15,6.42,61.12,1,75.5,1h1c.16,4.81.34,11.09.53,17.76C77.64,39.75,78.1,55.3,78.42,59.19Z"/><path class="cls-5" d="M75.5.48v1H76c.15,4.74.32,10.83.51,17.27.56,19.39,1,34.15,1.33,39.41-3-2.36-10.61-9.69-20.55-20.26C45.43,25.27,38.7,17,37.86,15,46.63,6.79,61.35,1.48,75.5,1.48v-1m0,0C59.69.48,44.86,6.9,36.86,14.59,34.7,16.38,75.94,59.94,78.93,59.94H79c-.46-2-1.45-41.54-2-59.43L75.5.48Z"/><path class="cls-6" d="M52,115.62l1.53,8.58a60,60,0,0,1-38-55.79c0-3.23.74-9.49.74-9.49Z"/><path class="cls-7" d="M51.79,115.13A59.55,59.55,0,0,1,37.09,14.9L79,59.62Z"/><path class="cls-8" d="M37.06,15.41,78.5,59.69l-26.89,55A59.19,59.19,0,0,1,37.06,15.41m.06-1A59.94,59.94,0,0,0,52,115.62L79.4,59.55,37.12,14.38Z"/><line class="cls-9" x1="51.82" y1="115" x2="53.54" y2="123.83"/></g></g></svg>