<svg xmlns="http://www.w3.org/2000/svg" xmlns:xlink="http://www.w3.org/1999/xlink" viewBox="0 0 151 151"><defs><style>.cls-1{fill:url(#linear-gradient);filter:url(#filter);}.cls-2{fill:url(#linear-gradient-2);}.cls-3{fill:url(#linear-gradient-3);}.cls-4{fill:url(#linear-gradient-4);}.cls-5{fill:#ffd357;}.cls-6{fill:none;stroke:#ffd357;stroke-linecap:round;stroke-miterlimit:10;stroke-width:0.75px;}</style><linearGradient id="linear-gradient" x1="99.49" y1="123.16" x2="50.67" y2="13.67" gradientUnits="userSpaceOnUse"><stop offset="0" stop-color="#ffbd3d"/><stop offset="1" stop-color="#ffaf15"/></linearGradient><filter id="filter" x="0" y="0" width="151" height="151" filterUnits="userSpaceOnUse"><feOffset dy="7" input="SourceAlpha"/><feGaussianBlur stdDeviation="5" result="blur"/><feFlood flood-color="#eceae5"/><feComposite operator="in" in2="blur"/><feComposite in="SourceGraphic"/></filter><linearGradient id="linear-gradient-2" x1="99.49" y1="115.21" x2="50.67" y2="5.72" gradientUnits="userSpaceOnUse"><stop offset="0" stop-color="#ffd95e"/><stop offset="1" stop-color="#ffb31e"/></linearGradient><linearGradient id="linear-gradient-3" x1="46.26" y1="127.27" x2="15.81" y2="58.97" gradientUnits="userSpaceOnUse"><stop offset="0" stop-color="#ffad30"/><stop offset="1" stop-color="#ffad28"/></linearGradient><linearGradient id="linear-gradient-4" x1="65.74" y1="108.76" x2="26.02" y2="19.68" gradientUnits="userSpaceOnUse"><stop offset="0.02" stop-color="#ffc15c"/><stop offset="1" stop-color="#ff9335"/></linearGradient></defs><g id="Layer_2" data-name="Layer 2"><g id="Layer_1-2" data-name="Layer 1"><circle class="cls-1" cx="75.08" cy="68.41" r="59.92"/><circle class="cls-2" cx="75.08" cy="60.46" r="59.92"/><path class="cls-3" d="M51.63,115.62l1.53,8.58a60,60,0,0,1-38-55.79c0-3.23.75-9.49.75-9.49Z"/><path class="cls-4" d="M51.45,115.13A59.56,59.56,0,0,1,36.75,14.9L77.5,58.43a2.38,2.38,0,0,1,.39,2.65Z"/><path class="cls-5" d="M36.72,15.41l40.5,43.27a2,2,0,0,1,.34,2.24L51.27,114.65A59.19,59.19,0,0,1,36.72,15.41m.06-1A59.94,59.94,0,0,0,51.63,115.62l26.6-54.37a2.74,2.74,0,0,0-.46-3.08l-41-43.79Z"/><line class="cls-6" x1="51.48" y1="115" x2="53.2" y2="123.83"/></g></g></svg>